# xmcd
#
# Track frame offsets: 
#        150
#        19667
#        38420
#        59920
#        75305
#        91760
#        107977
#        124872
#        146007
#        161990
#        183540
#
# Disc length: 2641 seconds
#
# Revision: 0
# Processed by: cddbd v1.5.2PL0 Copyright (c) Steve Scherf et al.
# Submitted via: ExactAudioCopy v1.0b1
#
DISCID=910a4f0b
DTITLE=范逸臣 - 爱情程式
DYEAR=2004
DGENRE=Pop
TTITLE0=断翅蝴蝶飞
TTITLE1=九月爱情祭
TTITLE2=爱情程式
TTITLE3=我已受伤
TTITLE4=爱太遥远
TTITLE5=灰色地带
TTITLE6=赎罪
TTITLE7=在这里分手
TTITLE8=夜生活
TTITLE9=那你
TTITLE10=爱情程式(Acoustic)
EXTD=
EXTT0=
EXTT1=
EXTT2=
EXTT3=
EXTT4=
EXTT5=
EXTT6=
EXTT7=
EXTT8=
EXTT9=
EXTT10=
PLAYORDER=
